<svg width="2533" height="1811" viewBox="0 0 2533 1811" fill="none" xmlns="http://www.w3.org/2000/svg">
<mask id="mask0_50_1437" style="mask-type:alpha" maskUnits="userSpaceOnUse" x="701" y="1349" width="215" height="149">
<path d="M888.5 1349H701C744 1397.33 830.5 1494.6 832.5 1497C834.5 1499.4 888.667 1467 915.5 1450.5L888.5 1349Z" fill="#D9D9D9"/>
</mask>
<g mask="url(#mask0_50_1437)">
<path d="M756.965 1370.48L755.371 1372.4L757.297 1373.99L782.339 1394.71C797.978 1407.65 814.837 1416.66 827.76 1422.43C834.228 1425.32 839.726 1427.41 843.614 1428.78C845.559 1429.46 847.103 1429.96 848.165 1430.3C848.696 1430.46 849.108 1430.59 849.389 1430.67C849.529 1430.71 849.637 1430.75 849.711 1430.77L849.797 1430.79L849.821 1430.8L849.828 1430.8L849.83 1430.8C849.831 1430.8 849.831 1430.8 850.512 1428.4L849.831 1430.8L851.399 1431.25L852.438 1429.99L865.187 1414.58L866.225 1413.32L865.496 1411.87L863.26 1412.99C865.496 1411.87 865.495 1411.87 865.495 1411.87L865.494 1411.86L865.491 1411.86L865.48 1411.84L865.439 1411.76C865.404 1411.69 865.353 1411.59 865.286 1411.46C865.151 1411.2 864.951 1410.82 864.687 1410.33C864.16 1409.34 863.376 1407.92 862.341 1406.14C860.271 1402.58 857.191 1397.57 853.141 1391.75C845.047 1380.14 833.036 1365.27 817.397 1352.33L792.356 1331.62L790.429 1330.02L788.836 1331.95L756.965 1370.48Z" fill="#B0C1FF" stroke="black" stroke-width="5"/>
</g>
<mask id="mask1_50_1437" style="mask-type:alpha" maskUnits="userSpaceOnUse" x="51" y="591" width="1109" height="1220">
<path d="M880.5 939H704.5L545.5 1238.5L695.5 1349H716L801 1348L800.5 1354H825.5L1058.5 1270.5L1159.5 1762L51 1810.5V738L191 591L852 738L880.5 939Z" fill="#D9D9D9"/>
</mask>
<g mask="url(#mask1_50_1437)">
<path fill-rule="evenodd" clip-rule="evenodd" d="M877.37 1143.69C877.37 1339.75 718.431 1498.69 522.37 1498.69C326.309 1498.69 167.37 1339.75 167.37 1143.69C167.37 947.629 326.309 788.69 522.37 788.69C718.431 788.69 877.37 947.629 877.37 1143.69ZM247.37 1143.69C247.37 1295.57 370.492 1418.69 522.37 1418.69C674.248 1418.69 797.37 1295.57 797.37 1143.69C797.37 991.812 674.248 868.69 522.37 868.69C370.492 868.69 247.37 991.812 247.37 1143.69ZM522.37 1493.69C715.67 1493.69 872.37 1336.99 872.37 1143.69C872.37 950.39 715.67 793.69 522.37 793.69C329.07 793.69 172.37 950.39 172.37 1143.69C172.37 1336.99 329.07 1493.69 522.37 1493.69ZM522.37 1423.69C367.73 1423.69 242.37 1298.33 242.37 1143.69C242.37 989.05 367.73 863.69 522.37 863.69C677.01 863.69 802.37 989.05 802.37 1143.69C802.37 1298.33 677.01 1423.69 522.37 1423.69Z" fill="black"/>
</g>
<mask id="mask2_50_1437" style="mask-type:alpha" maskUnits="userSpaceOnUse" x="0" y="619" width="991" height="1144">
<path d="M629.5 934H804L810 912.5L882 845L991 748L415 619C276.667 661.333 0 749 0 761C0 773 14 1223.33 21 1447L415 1762.5L930 1479L979.5 1494.5V1435L921 1391.5L842 1354H691L702.5 1252L629.5 934Z" fill="#D9D9D9"/>
</mask>
<g mask="url(#mask2_50_1437)">
<path d="M872.37 1143.69C872.37 1336.99 715.67 1493.69 522.37 1493.69C329.07 1493.69 172.37 1336.99 172.37 1143.69C172.37 950.39 329.07 793.69 522.37 793.69C715.67 793.69 872.37 950.39 872.37 1143.69ZM242.37 1143.69C242.37 1298.33 367.73 1423.69 522.37 1423.69C677.01 1423.69 802.37 1298.33 802.37 1143.69C802.37 989.05 677.01 863.69 522.37 863.69C367.73 863.69 242.37 989.05 242.37 1143.69Z" fill="#B0C1FF"/>
<path d="M547.374 819.19H549.874V816.69V784.19C549.874 763.893 546.071 745.159 542.283 731.521C540.387 724.695 538.49 719.129 537.064 715.262C536.35 713.328 535.754 711.818 535.334 710.786C535.124 710.271 534.959 709.874 534.844 709.604C534.787 709.469 534.742 709.366 534.712 709.295L534.676 709.213L534.666 709.191L534.663 709.184L534.662 709.182C534.662 709.181 534.662 709.181 532.374 710.19L534.662 709.181L534.004 707.69H532.374H512.374H510.745L510.087 709.181L512.374 710.19C510.087 709.181 510.087 709.181 510.086 709.182L510.085 709.184L510.083 709.191L510.073 709.213L510.037 709.295C510.006 709.366 509.962 709.469 509.905 709.604C509.79 709.874 509.624 710.271 509.414 710.786C508.994 711.818 508.398 713.328 507.685 715.262C506.259 719.129 504.361 724.695 502.465 731.521C498.677 745.159 494.874 763.893 494.874 784.19V816.69V819.19H497.374H547.374Z" fill="#B0C1FF" stroke="black" stroke-width="5"/>
<path d="M693.179 1421.81L691.156 1423.28L692.626 1425.31L711.729 1451.6C723.659 1468.02 737.747 1480.94 748.828 1489.75C754.374 1494.16 759.18 1497.54 762.607 1499.83C764.321 1500.98 765.691 1501.85 766.637 1502.44C767.11 1502.73 767.477 1502.96 767.728 1503.11C767.854 1503.18 767.951 1503.24 768.017 1503.28L768.094 1503.32L768.116 1503.34L768.122 1503.34L768.124 1503.34C768.125 1503.34 768.125 1503.34 769.382 1501.18L768.125 1503.34L769.534 1504.16L770.852 1503.2L787.032 1491.45L788.351 1490.49L788.006 1488.9L785.563 1489.43C788.006 1488.9 788.006 1488.9 788.006 1488.9L788.006 1488.89L788.004 1488.89L787.999 1488.86L787.979 1488.78C787.963 1488.7 787.938 1488.59 787.905 1488.45C787.839 1488.16 787.74 1487.74 787.607 1487.2C787.34 1486.12 786.935 1484.55 786.375 1482.57C785.256 1478.6 783.519 1472.98 781.041 1466.34C776.09 1453.08 768.155 1435.69 756.225 1419.27L737.122 1392.98L735.652 1390.96L733.63 1392.43L693.179 1421.81Z" fill="#B0C1FF" stroke="black" stroke-width="5"/>
<path d="M311.119 1392.43L309.096 1390.96L307.627 1392.98L288.524 1419.27C276.594 1435.69 268.658 1453.08 263.707 1466.34C261.229 1472.98 259.492 1478.6 258.373 1482.57C257.813 1484.55 257.408 1486.12 257.141 1487.2C257.008 1487.74 256.909 1488.16 256.843 1488.45C256.81 1488.59 256.785 1488.7 256.769 1488.77L256.749 1488.86L256.744 1488.89L256.742 1488.89L256.742 1488.9C256.742 1488.9 256.742 1488.9 259.185 1489.42L256.742 1488.9L256.397 1490.49L257.716 1491.45L273.896 1503.2L275.214 1504.16L276.623 1503.34L275.366 1501.18C276.623 1503.34 276.623 1503.34 276.624 1503.34L276.626 1503.34L276.632 1503.34L276.654 1503.32L276.731 1503.28C276.797 1503.24 276.894 1503.18 277.019 1503.11C277.271 1502.95 277.638 1502.73 278.111 1502.44C279.057 1501.85 280.427 1500.98 282.141 1499.83C285.568 1497.54 290.374 1494.16 295.92 1489.75C307.001 1480.94 321.09 1468.02 333.02 1451.6L352.123 1425.31L353.592 1423.28L351.57 1421.81L311.119 1392.43Z" fill="#B0C1FF" stroke="black" stroke-width="5"/>
<path d="M221.006 1019.98L221.779 1017.61L219.401 1016.83L188.492 1006.79C169.189 1000.52 150.196 998.345 136.055 997.733C128.977 997.427 123.097 997.512 118.979 997.673C116.919 997.754 115.299 997.854 114.188 997.935C113.633 997.975 113.204 998.01 112.912 998.036C112.766 998.049 112.654 998.059 112.577 998.066L112.488 998.075L112.464 998.077L112.457 998.078L112.454 998.078C112.454 998.078 112.453 998.078 112.706 1000.57L112.453 998.078L110.832 998.243L110.328 999.793L104.148 1018.81L103.644 1020.36L104.859 1021.45L106.525 1019.59C104.859 1021.45 104.859 1021.45 104.86 1021.45L104.862 1021.45L104.867 1021.46L104.886 1021.47L104.952 1021.53C105.01 1021.58 105.095 1021.66 105.206 1021.75C105.427 1021.95 105.752 1022.23 106.178 1022.59C107.03 1023.3 108.282 1024.34 109.9 1025.61C113.137 1028.17 117.845 1031.69 123.75 1035.6C135.55 1043.42 152.193 1052.83 171.496 1059.1L202.405 1069.14L204.783 1069.91L205.555 1067.54L221.006 1019.98Z" fill="#B0C1FF" stroke="black" stroke-width="5"/>
<path d="M465.874 823.043L468.295 822.421L467.673 820L459.591 788.521C454.544 768.862 446.201 751.662 439.14 739.394C435.606 733.255 432.385 728.335 430.041 724.944C428.87 723.249 427.917 721.934 427.254 721.039C426.922 720.592 426.663 720.249 426.485 720.017C426.396 719.9 426.327 719.811 426.279 719.75L426.225 719.679L426.209 719.66L426.205 719.654L426.203 719.653C426.203 719.652 426.203 719.651 424.238 721.198L426.203 719.651L425.195 718.371L423.616 718.776L404.245 723.75L402.666 724.155L402.4 725.763L404.866 726.171C402.4 725.763 402.4 725.764 402.4 725.764L402.399 725.767L402.398 725.774L402.394 725.798L402.38 725.886C402.368 725.963 402.351 726.074 402.329 726.219C402.285 726.509 402.223 726.934 402.148 727.486C401.998 728.589 401.796 730.2 401.586 732.251C401.166 736.351 400.713 742.214 400.574 749.296C400.296 763.448 401.272 782.54 406.319 802.199L414.401 833.678L415.023 836.099L417.445 835.477L465.874 823.043Z" fill="#B0C1FF" stroke="black" stroke-width="5"/>
<path d="M756.965 1370.48L755.371 1372.4L757.297 1373.99L782.339 1394.71C797.978 1407.65 814.837 1416.66 827.76 1422.43C834.228 1425.32 839.726 1427.41 843.614 1428.78C845.559 1429.46 847.103 1429.96 848.165 1430.3C848.696 1430.46 849.108 1430.59 849.389 1430.67C849.529 1430.71 849.637 1430.75 849.711 1430.77L849.797 1430.79L849.821 1430.8L849.828 1430.8L849.83 1430.8C849.831 1430.8 849.831 1430.8 850.512 1428.4L849.831 1430.8L851.399 1431.25L852.438 1429.99L865.187 1414.58L866.225 1413.32L865.496 1411.87L863.26 1412.99C865.496 1411.87 865.495 1411.87 865.495 1411.87L865.494 1411.86L865.491 1411.86L865.48 1411.84L865.439 1411.76C865.404 1411.69 865.353 1411.59 865.286 1411.46C865.151 1411.2 864.951 1410.82 864.687 1410.33C864.16 1409.34 863.376 1407.92 862.341 1406.14C860.271 1402.58 857.191 1397.57 853.141 1391.75C845.047 1380.14 833.036 1365.27 817.397 1352.33L792.356 1331.62L790.429 1330.02L788.836 1331.95L756.965 1370.48Z" fill="#B0C1FF" stroke="black" stroke-width="5"/>
<path d="M379.599 1437.02L377.274 1436.1L376.354 1438.43L364.39 1468.65C356.918 1487.52 353.557 1506.34 352.059 1520.41C351.309 1527.46 351.024 1533.33 350.927 1537.45C350.878 1539.51 350.876 1541.13 350.887 1542.25C350.892 1542.8 350.901 1543.23 350.908 1543.53C350.911 1543.67 350.915 1543.79 350.917 1543.86L350.92 1543.95L350.921 1543.98L350.921 1543.98L350.921 1543.99C350.921 1543.99 350.921 1543.99 353.42 1543.89L350.921 1543.99L350.984 1545.62L352.499 1546.22L371.095 1553.58L372.61 1554.18L373.77 1553.03L372.015 1551.25C373.77 1553.03 373.771 1553.03 373.771 1553.03L373.773 1553.03L373.778 1553.03L373.796 1553.01L373.859 1552.95C373.913 1552.89 373.993 1552.81 374.096 1552.71C374.302 1552.5 374.602 1552.19 374.987 1551.79C375.757 1550.98 376.867 1549.8 378.242 1548.26C380.992 1545.19 384.805 1540.72 389.081 1535.07C397.623 1523.78 408.056 1507.76 415.528 1488.89L427.492 1458.67L428.412 1456.35L426.087 1455.43L379.599 1437.02Z" fill="#B0C1FF" stroke="black" stroke-width="5"/>
<path d="M810.285 991.014L811.625 993.125L813.736 991.785L841.177 974.371C858.313 963.496 872.094 950.246 881.579 939.74C886.326 934.482 890.009 929.898 892.51 926.621C893.76 924.983 894.716 923.671 895.362 922.763C895.685 922.31 895.931 921.957 896.097 921.716C896.181 921.595 896.244 921.502 896.288 921.438L896.338 921.364L896.351 921.344L896.355 921.338L896.357 921.336C896.357 921.335 896.358 921.335 894.28 919.944L896.358 921.335L897.264 919.981L896.391 918.605L885.674 901.718L884.801 900.342L883.19 900.586L883.563 903.058C883.19 900.586 883.189 900.586 883.188 900.586L883.186 900.586L883.179 900.587L883.155 900.591L883.066 900.605C882.99 900.617 882.879 900.635 882.734 900.659C882.445 900.707 882.022 900.779 881.474 900.878C880.378 901.076 878.783 901.382 876.768 901.816C872.739 902.684 867.023 904.065 860.244 906.121C846.699 910.23 828.843 917.058 811.706 927.933L784.265 945.347L782.155 946.687L783.494 948.798L810.285 991.014Z" fill="#B0C1FF" stroke="black" stroke-width="5"/>
<path d="M199.694 1098.69L199.851 1096.2L197.356 1096.04L164.921 1094C144.664 1092.72 125.728 1095.34 111.879 1098.27C104.947 1099.73 99.2735 1101.28 95.3245 1102.46C93.3496 1103.05 91.805 1103.55 90.7491 1103.9C90.2211 1104.08 89.8152 1104.22 89.5386 1104.32C89.4003 1104.36 89.2944 1104.4 89.2217 1104.43L89.1377 1104.46L89.1146 1104.47L89.1078 1104.47L89.1056 1104.47C89.1049 1104.47 89.1042 1104.47 89.9677 1106.82L89.1042 1104.47L87.575 1105.03L87.4726 1106.66L86.2168 1126.62L86.1145 1128.25L87.5611 1129L88.7119 1126.78C87.5611 1129 87.5617 1129 87.5625 1129L87.5645 1129L87.571 1129L87.5928 1129.01L87.6723 1129.05C87.7412 1129.09 87.8415 1129.14 87.9726 1129.21C88.2348 1129.34 88.6199 1129.53 89.1215 1129.77C90.1247 1130.25 91.5945 1130.94 93.4798 1131.78C97.2496 1133.44 102.685 1135.69 109.378 1138.01C122.752 1142.64 141.211 1147.62 161.467 1148.89L193.903 1150.93L196.398 1151.09L196.555 1148.59L199.694 1098.69Z" fill="#B0C1FF" stroke="black" stroke-width="5"/>
<path d="M387.891 847.043L390.082 845.839L388.878 843.648L373.221 815.168C363.443 797.382 351.085 782.797 341.195 772.671C336.245 767.603 331.902 763.639 328.789 760.938C327.232 759.587 325.982 758.551 325.117 757.849C324.685 757.498 324.349 757.231 324.118 757.049C324.003 756.959 323.914 756.89 323.853 756.842L323.782 756.788L323.763 756.773L323.757 756.768L323.755 756.767C323.755 756.766 323.754 756.766 322.236 758.752L323.754 756.766L322.459 755.776L321.032 756.561L303.505 766.196L302.077 766.981L302.219 768.605L304.71 768.387C302.219 768.605 302.219 768.605 302.219 768.606L302.22 768.609L302.22 768.616L302.222 768.64L302.231 768.729C302.238 768.806 302.249 768.918 302.264 769.064C302.293 769.356 302.339 769.783 302.403 770.336C302.532 771.442 302.738 773.053 303.044 775.091C303.657 779.167 304.676 784.958 306.303 791.853C309.553 805.629 315.246 823.879 325.024 841.665L340.681 870.145L341.885 872.335L344.076 871.131L387.891 847.043Z" fill="#B0C1FF" stroke="black" stroke-width="5"/>
<path d="M457.018 1463.19L454.538 1462.88L454.224 1465.36L450.151 1497.6C447.607 1517.74 449.032 1536.8 451.081 1550.81C452.107 1557.82 453.291 1563.58 454.222 1567.59C454.687 1569.6 455.089 1571.17 455.376 1572.25C455.52 1572.79 455.635 1573.2 455.715 1573.48C455.755 1573.62 455.786 1573.73 455.807 1573.81L455.832 1573.89L455.839 1573.92L455.841 1573.92L455.842 1573.92C455.842 1573.93 455.842 1573.93 458.238 1573.21L455.842 1573.93L456.308 1575.49L457.925 1575.69L477.767 1578.2L479.384 1578.4L480.223 1577.01L478.08 1575.72C480.223 1577.01 480.224 1577.01 480.224 1577L480.225 1577L480.229 1577L480.242 1576.98L480.287 1576.9C480.326 1576.83 480.384 1576.74 480.457 1576.61C480.605 1576.35 480.819 1575.98 481.092 1575.5C481.638 1574.53 482.418 1573.1 483.369 1571.27C485.268 1567.62 487.848 1562.33 490.585 1555.8C496.052 1542.74 502.174 1524.63 504.717 1504.49L508.791 1472.25L509.104 1469.77L506.624 1469.46L457.018 1463.19Z" fill="#B0C1FF" stroke="black" stroke-width="5"/>
<path d="M763.256 924.086L765.079 925.797L766.79 923.975L789.038 900.283C802.931 885.488 812.984 869.228 819.559 856.693C822.849 850.419 825.276 845.063 826.883 841.268C827.687 839.37 828.287 837.861 828.687 836.821C828.887 836.302 829.037 835.899 829.138 835.624C829.189 835.487 829.227 835.381 829.254 835.308L829.284 835.224L829.292 835.201L829.294 835.194L829.295 835.192C829.295 835.191 829.296 835.19 826.937 834.36L829.296 835.19L829.837 833.653L828.649 832.538L814.069 818.847L812.882 817.731L811.381 818.368L812.358 820.669C811.381 818.368 811.381 818.368 811.38 818.368L811.378 818.369L811.371 818.372L811.349 818.382L811.267 818.417C811.196 818.448 811.093 818.493 810.958 818.552C810.69 818.67 810.298 818.846 809.792 819.078C808.78 819.542 807.311 820.235 805.467 821.157C801.78 822.999 796.587 825.758 790.533 829.436C778.435 836.784 762.838 847.838 748.944 862.633L726.697 886.325L724.985 888.147L726.808 889.858L763.256 924.086Z" fill="#B0C1FF" stroke="black" stroke-width="5"/>
<path d="M198.626 1180.23L198.158 1177.77L195.702 1178.24L163.778 1184.33C143.841 1188.13 126.15 1195.38 113.464 1201.66C107.114 1204.8 102.002 1207.7 98.4712 1209.83C96.7052 1210.89 95.3335 1211.76 94.3988 1212.37C93.9315 1212.67 93.5733 1212.91 93.3297 1213.07C93.2078 1213.15 93.1147 1213.22 93.0507 1213.26L92.9769 1213.31L92.9567 1213.32L92.9507 1213.33L92.9488 1213.33C92.9481 1213.33 92.9476 1213.33 94.3674 1215.39L92.9476 1213.33L91.6063 1214.26L91.9117 1215.86L95.6593 1235.5L95.9646 1237.1L97.5524 1237.47L98.115 1235.03C97.5524 1237.47 97.553 1237.47 97.5538 1237.47L97.5561 1237.47L97.5631 1237.47L97.5871 1237.48L97.6743 1237.5C97.7497 1237.51 97.8595 1237.54 98.0028 1237.57C98.2894 1237.63 98.7097 1237.72 99.2558 1237.83C100.348 1238.05 101.943 1238.35 103.976 1238.69C108.042 1239.37 113.865 1240.19 120.925 1240.77C135.031 1241.94 154.147 1242.16 174.083 1238.36L206.008 1232.27L208.464 1231.8L207.995 1229.34L198.626 1180.23Z" fill="#B0C1FF" stroke="black" stroke-width="5"/>
<path d="M627.274 835.726L629.695 836.348L630.317 833.926L638.399 802.447C643.447 782.789 644.423 763.697 644.145 749.545C644.006 742.462 643.553 736.6 643.133 732.499C642.923 730.449 642.721 728.838 642.571 727.734C642.496 727.183 642.434 726.757 642.39 726.468C642.368 726.323 642.351 726.211 642.339 726.135L642.324 726.047L642.32 726.023L642.319 726.015L642.319 726.013C642.319 726.012 642.319 726.012 639.852 726.42L642.319 726.012L642.052 724.404L640.474 723.999L621.102 719.025L619.524 718.62L618.516 719.9L620.481 721.446C618.516 719.9 618.516 719.901 618.515 719.901L618.514 719.903L618.509 719.909L618.494 719.928L618.439 719.999C618.392 720.06 618.323 720.149 618.234 720.265C618.056 720.498 617.797 720.841 617.465 721.288C616.802 722.183 615.849 723.498 614.677 725.193C612.334 728.584 609.112 733.503 605.578 739.643C598.517 751.91 590.175 769.111 585.127 788.769L577.045 820.248L576.423 822.67L578.844 823.292L627.274 835.726Z" fill="#B0C1FF" stroke="black" stroke-width="5"/>
<path d="M618.631 1455.68L616.306 1456.6L617.227 1458.92L629.191 1489.14C636.662 1508.01 647.095 1524.03 655.637 1535.32C659.913 1540.97 663.726 1545.44 666.476 1548.51C667.851 1550.05 668.961 1551.23 669.731 1552.04C670.116 1552.44 670.416 1552.75 670.622 1552.96C670.725 1553.06 670.804 1553.14 670.859 1553.2L670.922 1553.26L670.94 1553.28L670.945 1553.28L670.946 1553.28C670.947 1553.28 670.948 1553.28 672.703 1551.5L670.948 1553.28L672.108 1554.43L673.623 1553.83L692.219 1546.47L693.734 1545.87L693.796 1544.24L691.298 1544.14C693.796 1544.24 693.796 1544.24 693.796 1544.24L693.797 1544.23L693.797 1544.23L693.798 1544.2L693.801 1544.11C693.803 1544.03 693.806 1543.92 693.81 1543.78C693.817 1543.48 693.826 1543.05 693.831 1542.5C693.841 1541.38 693.84 1539.76 693.791 1537.7C693.694 1533.58 693.409 1527.7 692.659 1520.66C691.161 1506.59 687.8 1487.77 680.328 1468.89L668.364 1438.68L667.444 1436.35L665.12 1437.27L618.631 1455.68Z" fill="#B0C1FF" stroke="black" stroke-width="5"/>
<path d="M255.882 1332.2L254.289 1330.27L252.362 1331.87L227.321 1352.58C211.682 1365.52 199.671 1380.39 191.577 1392C187.527 1397.82 184.447 1402.82 182.377 1406.39C181.341 1408.17 180.558 1409.59 180.03 1410.57C179.767 1411.06 179.567 1411.44 179.432 1411.71C179.365 1411.84 179.314 1411.94 179.279 1412L179.238 1412.08L179.227 1412.11L179.224 1412.11L179.223 1412.11C179.222 1412.12 179.222 1412.12 181.458 1413.23L179.222 1412.12L178.493 1413.57L179.531 1414.83L192.28 1430.24L193.318 1431.49L194.886 1431.05L194.206 1428.65C194.886 1431.05 194.887 1431.05 194.888 1431.05L194.89 1431.05L194.897 1431.05L194.921 1431.04L195.007 1431.02C195.081 1430.99 195.189 1430.96 195.329 1430.92C195.61 1430.84 196.021 1430.71 196.553 1430.55C197.615 1430.21 199.159 1429.71 201.103 1429.03C204.992 1427.66 210.49 1425.57 216.958 1422.68C229.881 1416.91 246.741 1407.9 262.379 1394.96L287.421 1374.24L289.347 1372.65L287.754 1370.72L255.882 1332.2Z" fill="#B0C1FF" stroke="black" stroke-width="5"/>
<path d="M261.224 949.047L262.564 946.936L260.453 945.596L233.012 928.182C215.875 917.307 198.019 910.479 184.475 906.37C177.696 904.313 171.98 902.933 167.95 902.065C165.935 901.631 164.341 901.325 163.245 901.127C162.697 901.028 162.273 900.955 161.984 900.907C161.839 900.883 161.728 900.866 161.652 900.854L161.564 900.84L161.539 900.836L161.532 900.835L161.53 900.835C161.529 900.834 161.529 900.834 161.155 903.306L161.529 900.834L159.917 900.591L159.044 901.967L148.328 918.853L147.454 920.229L148.361 921.583L150.438 920.193C148.361 921.583 148.361 921.584 148.362 921.585L148.363 921.586L148.367 921.592L148.381 921.613L148.431 921.687C148.474 921.751 148.538 921.844 148.621 921.964C148.787 922.206 149.033 922.558 149.356 923.012C150.002 923.919 150.958 925.231 152.208 926.87C154.709 930.146 158.392 934.731 163.139 939.989C172.624 950.495 186.405 963.745 203.542 974.62L230.982 992.034L233.093 993.374L234.433 991.263L261.224 949.047Z" fill="#B0C1FF" stroke="black" stroke-width="5"/>
<path d="M700.55 871.613L702.741 872.818L703.945 870.627L719.602 842.147C729.38 824.361 735.073 806.112 738.323 792.336C739.95 785.441 740.969 779.649 741.582 775.574C741.889 773.535 742.094 771.925 742.223 770.818C742.288 770.265 742.333 769.838 742.363 769.546C742.378 769.401 742.388 769.289 742.396 769.212L742.404 769.123L742.406 769.098L742.407 769.091L742.407 769.089C742.407 769.088 742.407 769.087 739.917 768.87L742.407 769.087L742.549 767.464L741.121 766.679L723.595 757.044L722.167 756.259L720.872 757.248L722.39 759.234C720.872 757.248 720.872 757.249 720.871 757.249L720.869 757.251L720.863 757.255L720.844 757.27L720.773 757.325C720.712 757.372 720.623 757.441 720.508 757.532C720.278 757.713 719.941 757.98 719.509 758.331C718.644 759.033 717.394 760.069 715.838 761.42C712.725 764.122 708.381 768.085 703.431 773.153C693.541 783.279 681.183 797.865 671.405 815.65L655.748 844.13L654.544 846.321L656.734 847.525L700.55 871.613Z" fill="#B0C1FF" stroke="black" stroke-width="5"/>
<path d="M538.003 1469.94L535.523 1470.25L535.836 1472.73L539.909 1504.98C542.453 1525.11 548.574 1543.22 554.042 1556.28C556.778 1562.81 559.358 1568.1 561.258 1571.76C562.208 1573.58 562.988 1575.01 563.534 1575.98C563.807 1576.46 564.021 1576.84 564.169 1577.09C564.243 1577.22 564.3 1577.31 564.339 1577.38L564.385 1577.46L564.397 1577.48L564.401 1577.48L564.402 1577.49C564.403 1577.49 564.403 1577.49 566.546 1576.2L564.403 1577.49L565.242 1578.88L566.859 1578.68L586.701 1576.17L588.318 1575.97L588.784 1574.41L586.388 1573.69C588.784 1574.41 588.784 1574.41 588.784 1574.41L588.785 1574.4L588.787 1574.4L588.794 1574.37L588.819 1574.29C588.841 1574.21 588.872 1574.11 588.912 1573.96C588.991 1573.68 589.106 1573.27 589.25 1572.73C589.537 1571.65 589.939 1570.08 590.405 1568.07C591.335 1564.06 592.52 1558.3 593.545 1551.29C595.595 1537.28 597.019 1518.22 594.476 1498.08L590.402 1465.84L590.089 1463.36L587.609 1463.67L538.003 1469.94Z" fill="#B0C1FF" stroke="black" stroke-width="5"/>
<path d="M217.359 1260.13L216.295 1257.86L214.033 1258.93L184.626 1272.77C166.261 1281.41 150.928 1292.83 140.201 1302.06C134.833 1306.68 130.604 1310.77 127.713 1313.71C126.266 1315.17 125.154 1316.36 124.399 1317.18C124.022 1317.59 123.734 1317.9 123.538 1318.12C123.441 1318.23 123.366 1318.32 123.315 1318.37L123.256 1318.44L123.24 1318.46L123.235 1318.47L123.234 1318.47C123.233 1318.47 123.233 1318.47 125.12 1320.11L123.233 1318.47L122.164 1319.7L122.858 1321.17L131.373 1339.27L132.067 1340.74L133.696 1340.7L133.635 1338.21C133.696 1340.7 133.697 1340.7 133.697 1340.7L133.7 1340.7L133.707 1340.7L133.732 1340.7L133.821 1340.7C133.898 1340.7 134.011 1340.69 134.157 1340.69C134.45 1340.68 134.879 1340.66 135.435 1340.63C136.548 1340.57 138.168 1340.47 140.221 1340.29C144.328 1339.93 150.172 1339.28 157.155 1338.09C171.108 1335.71 189.679 1331.17 208.044 1322.53L237.451 1308.69L239.713 1307.63L238.648 1305.37L217.359 1260.13Z" fill="#B0C1FF" stroke="black" stroke-width="5"/>
<path d="M317.819 890.341L319.641 888.629L317.93 886.807L295.682 863.115C281.788 848.32 266.191 837.266 254.094 829.918C248.039 826.24 242.846 823.481 239.16 821.639C237.316 820.717 235.847 820.024 234.835 819.56C234.329 819.327 233.937 819.152 233.669 819.034C233.534 818.975 233.431 818.93 233.36 818.899L233.278 818.864L233.256 818.854L233.249 818.851L233.247 818.85C233.246 818.85 233.246 818.85 232.269 821.151L233.246 818.85L231.745 818.213L230.558 819.329L215.978 833.02L214.79 834.135L215.331 835.672L217.69 834.842C215.331 835.672 215.332 835.673 215.332 835.674L215.333 835.676L215.335 835.683L215.343 835.706L215.373 835.79C215.4 835.863 215.438 835.968 215.489 836.106C215.59 836.381 215.74 836.784 215.94 837.303C216.34 838.343 216.94 839.852 217.743 841.75C219.351 845.545 221.778 850.901 225.068 857.175C231.642 869.71 241.695 885.97 255.589 900.765L277.837 924.457L279.548 926.279L281.371 924.568L317.819 890.341Z" fill="#B0C1FF" stroke="black" stroke-width="5"/>
<path d="M872.37 1143.69C872.37 1336.99 715.67 1493.69 522.37 1493.69C329.07 1493.69 172.37 1336.99 172.37 1143.69C172.37 950.39 329.07 793.69 522.37 793.69C715.67 793.69 872.37 950.39 872.37 1143.69ZM242.37 1143.69C242.37 1298.33 367.73 1423.69 522.37 1423.69C677.01 1423.69 802.37 1298.33 802.37 1143.69C802.37 989.05 677.01 863.69 522.37 863.69C367.73 863.69 242.37 989.05 242.37 1143.69Z" fill="#B0C1FF"/>
</g>
<path d="M707 1351.5H816" stroke="black" stroke-width="5"/>
<path d="M707 936.5H807.5" stroke="black" stroke-width="5"/>
<path d="M1593.42 1022.5H1590.92V1025V1180V1335V1337.5H1593.42H1748.42C1835.4 1337.5 1905.92 1266.98 1905.92 1180C1905.92 1093.02 1835.4 1022.5 1748.42 1022.5H1593.42ZM1795.92 1180C1795.92 1206.23 1774.65 1227.5 1748.42 1227.5H1700.92V1180V1132.5H1748.42C1774.65 1132.5 1795.92 1153.77 1795.92 1180Z" fill="#FFA800" stroke="black" stroke-width="5"/>
<path d="M1258.42 1024.5H1255.92L1255.92 1027L1255.92 1182C1255.92 1268.99 1326.44 1339.5 1413.42 1339.5C1500.4 1339.5 1570.92 1268.99 1570.92 1182V1027V1024.5L1568.42 1024.5L1463.42 1024.5L1460.92 1024.5V1027V1182C1460.92 1208.23 1439.65 1229.5 1413.42 1229.5C1387.19 1229.5 1365.92 1208.23 1365.92 1182V1027V1024.5H1363.42H1258.42Z" fill="#FFA800" stroke="black" stroke-width="5"/>
<mask id="path-33-outside-1_50_1437" maskUnits="userSpaceOnUse" x="918.42" y="1022" width="320" height="320" fill="black">
<rect fill="white" x="918.42" y="1022" width="320" height="320"/>
<path d="M1233.42 1182C1233.42 1267.6 1164.02 1337 1078.42 1337C992.816 1337 923.42 1267.6 923.42 1182C923.42 1096.4 992.816 1027 1078.42 1027C1164.02 1027 1233.42 1096.4 1233.42 1182ZM1028.42 1182C1028.42 1209.61 1050.81 1232 1078.42 1232C1106.03 1232 1128.42 1209.61 1128.42 1182C1128.42 1154.39 1106.03 1132 1078.42 1132C1050.81 1132 1028.42 1154.39 1028.42 1182Z"/>
</mask>
<path d="M1233.42 1182C1233.42 1267.6 1164.02 1337 1078.42 1337C992.816 1337 923.42 1267.6 923.42 1182C923.42 1096.4 992.816 1027 1078.42 1027C1164.02 1027 1233.42 1096.4 1233.42 1182ZM1028.42 1182C1028.42 1209.61 1050.81 1232 1078.42 1232C1106.03 1232 1128.42 1209.61 1128.42 1182C1128.42 1154.39 1106.03 1132 1078.42 1132C1050.81 1132 1028.42 1154.39 1028.42 1182Z" fill="#FFA800"/>
<path d="M1233.42 1182C1233.42 1267.6 1164.02 1337 1078.42 1337C992.816 1337 923.42 1267.6 923.42 1182C923.42 1096.4 992.816 1027 1078.42 1027C1164.02 1027 1233.42 1096.4 1233.42 1182ZM1028.42 1182C1028.42 1209.61 1050.81 1232 1078.42 1232C1106.03 1232 1128.42 1209.61 1128.42 1182C1128.42 1154.39 1106.03 1132 1078.42 1132C1050.81 1132 1028.42 1154.39 1028.42 1182Z" stroke="black" stroke-width="10" mask="url(#path-33-outside-1_50_1437)"/>
<path d="M698.42 1024.5H695.92V1027V1337V1339.5H698.42H798.42H898.42H900.92V1337V1237V1234.5H898.42H800.92V1027V1024.5H798.42H698.42Z" fill="#FFA800" stroke="black" stroke-width="5"/>
<mask id="path-35-outside-2_50_1437" maskUnits="userSpaceOnUse" x="327" y="932" width="354" height="410" fill="black">
<rect fill="white" x="327" y="932" width="354" height="410"/>
<path d="M673.421 995.579C645.451 967.608 609.814 948.56 571.018 940.843C532.222 933.126 492.009 937.087 455.463 952.224C418.918 967.362 387.682 992.996 365.706 1025.89C343.73 1058.78 332 1097.44 332 1137C332 1176.56 343.73 1215.22 365.706 1248.11C387.682 1281 418.918 1306.64 455.463 1321.78C492.009 1336.91 532.222 1340.87 571.018 1333.16C609.814 1325.44 645.451 1306.39 673.421 1278.42L602.711 1207.71C588.725 1221.7 570.907 1231.22 551.509 1235.08C532.111 1238.94 512.004 1236.96 493.732 1229.39C475.459 1221.82 459.841 1209 448.853 1192.56C437.865 1176.11 432 1156.78 432 1137C432 1117.22 437.865 1097.89 448.853 1081.44C459.841 1065 475.459 1052.18 493.732 1044.61C512.004 1037.04 532.111 1035.06 551.509 1038.92C570.907 1042.78 588.725 1052.3 602.711 1066.29L673.421 995.579Z"/>
</mask>
<path d="M673.421 995.579C645.451 967.608 609.814 948.56 571.018 940.843C532.222 933.126 492.009 937.087 455.463 952.224C418.918 967.362 387.682 992.996 365.706 1025.89C343.73 1058.78 332 1097.44 332 1137C332 1176.56 343.73 1215.22 365.706 1248.11C387.682 1281 418.918 1306.64 455.463 1321.78C492.009 1336.91 532.222 1340.87 571.018 1333.16C609.814 1325.44 645.451 1306.39 673.421 1278.42L602.711 1207.71C588.725 1221.7 570.907 1231.22 551.509 1235.08C532.111 1238.94 512.004 1236.96 493.732 1229.39C475.459 1221.82 459.841 1209 448.853 1192.56C437.865 1176.11 432 1156.78 432 1137C432 1117.22 437.865 1097.89 448.853 1081.44C459.841 1065 475.459 1052.18 493.732 1044.61C512.004 1037.04 532.111 1035.06 551.509 1038.92C570.907 1042.78 588.725 1052.3 602.711 1066.29L673.421 995.579Z" fill="#FFA800"/>
<path d="M673.421 995.579C645.451 967.608 609.814 948.56 571.018 940.843C532.222 933.126 492.009 937.087 455.463 952.224C418.918 967.362 387.682 992.996 365.706 1025.89C343.73 1058.78 332 1097.44 332 1137C332 1176.56 343.73 1215.22 365.706 1248.11C387.682 1281 418.918 1306.64 455.463 1321.78C492.009 1336.91 532.222 1340.87 571.018 1333.16C609.814 1325.44 645.451 1306.39 673.421 1278.42L602.711 1207.71C588.725 1221.7 570.907 1231.22 551.509 1235.08C532.111 1238.94 512.004 1236.96 493.732 1229.39C475.459 1221.82 459.841 1209 448.853 1192.56C437.865 1176.11 432 1156.78 432 1137C432 1117.22 437.865 1097.89 448.853 1081.44C459.841 1065 475.459 1052.18 493.732 1044.61C512.004 1037.04 532.111 1035.06 551.509 1038.92C570.907 1042.78 588.725 1052.3 602.711 1066.29L673.421 995.579Z" stroke="black" stroke-width="10" mask="url(#path-35-outside-2_50_1437)"/>
<path d="M2528 540.5H2530.5V538V438V435.5H2528H2378C2321.39 435.5 2275.5 481.391 2275.5 538C2275.5 594.449 2321.23 645.5 2378 645.5H2278H2275.5L2275.5 648L2275.5 748L2275.5 750.5H2278H2428C2479.53 750.5 2530.5 704.69 2530.5 648L2530.5 643C2530.5 586.31 2479.53 540.5 2428 540.5H2478H2528Z" fill="#FFA800" stroke="black" stroke-width="5"/>
<path d="M2380.5 540.5H2483.5M2425.5 645.5H2335.5" stroke="black" stroke-width="5"/>
<path d="M1943 435.5H1940.5V438V593V748V750.5H1943H2098C2184.98 750.5 2255.5 679.985 2255.5 593C2255.5 506.015 2184.98 435.5 2098 435.5H1943ZM2145.5 593C2145.5 619.234 2124.23 640.5 2098 640.5H2050.5V593V545.5H2098C2124.23 545.5 2145.5 566.766 2145.5 593Z" fill="#FFA800" stroke="black" stroke-width="5"/>
<path d="M1718 435.5H1715.5V438V748V750.5H1718H1818H1918H1920.5V748V648V645.5H1918H1820.5V438V435.5H1818H1718Z" fill="#FFA800" stroke="black" stroke-width="5"/>
<mask id="path-40-outside-3_50_1437" maskUnits="userSpaceOnUse" x="1378" y="433" width="320" height="320" fill="black">
<rect fill="white" x="1378" y="433" width="320" height="320"/>
<path d="M1693 593C1693 678.604 1623.6 748 1538 748C1452.4 748 1383 678.604 1383 593C1383 507.396 1452.4 438 1538 438C1623.6 438 1693 507.396 1693 593ZM1488 593C1488 620.614 1510.39 643 1538 643C1565.61 643 1588 620.614 1588 593C1588 565.386 1565.61 543 1538 543C1510.39 543 1488 565.386 1488 593Z"/>
</mask>
<path d="M1693 593C1693 678.604 1623.6 748 1538 748C1452.4 748 1383 678.604 1383 593C1383 507.396 1452.4 438 1538 438C1623.6 438 1693 507.396 1693 593ZM1488 593C1488 620.614 1510.39 643 1538 643C1565.61 643 1588 620.614 1588 593C1588 565.386 1565.61 543 1538 543C1510.39 543 1488 565.386 1488 593Z" fill="#FFA800"/>
<path d="M1693 593C1693 678.604 1623.6 748 1538 748C1452.4 748 1383 678.604 1383 593C1383 507.396 1452.4 438 1538 438C1623.6 438 1693 507.396 1693 593ZM1488 593C1488 620.614 1510.39 643 1538 643C1565.61 643 1588 620.614 1588 593C1588 565.386 1565.61 543 1538 543C1510.39 543 1488 565.386 1488 593Z" stroke="black" stroke-width="10" mask="url(#path-40-outside-3_50_1437)"/>
<path d="M964 353H864V753H964V494L1094 624H1134L1264 494V753H1364V353H1264L1114 503L964 353Z" fill="#FFA800"/>
<path fill-rule="evenodd" clip-rule="evenodd" d="M964 353H864V753H964V494L1094 624H1134L1264 494V753H1364V353H1264L1114 503L964 353ZM1266.07 358L1114 510.071L961.929 358H869V748H959V481.929L1096.07 619H1131.93L1269 481.929V748H1359V358H1266.07Z" fill="black"/>
<mask id="mask3_50_1437" style="mask-type:alpha" maskUnits="userSpaceOnUse" x="1257" y="758" width="215" height="149">
<path d="M1444.5 758H1257C1300 806.333 1386.5 903.6 1388.5 906C1390.5 908.4 1444.67 876 1471.5 859.5L1444.5 758Z" fill="#D9D9D9"/>
</mask>
<g mask="url(#mask3_50_1437)">
<path d="M1312.96 779.475L1311.37 781.402L1313.3 782.995L1338.34 803.712C1353.98 816.649 1370.84 825.661 1383.76 831.435C1390.23 834.325 1395.73 836.411 1399.61 837.777C1401.56 838.46 1403.1 838.963 1404.17 839.298C1404.7 839.465 1405.11 839.589 1405.39 839.673C1405.53 839.715 1405.64 839.747 1405.71 839.768L1405.8 839.793L1405.82 839.8L1405.83 839.802L1405.83 839.802C1405.83 839.803 1405.83 839.803 1406.51 837.397L1405.83 839.803L1407.4 840.246L1408.44 838.991L1421.19 823.58L1422.23 822.325L1421.5 820.868L1419.26 821.987C1421.5 820.868 1421.5 820.867 1421.5 820.866L1421.49 820.864L1421.49 820.858L1421.48 820.836L1421.44 820.756C1421.4 820.687 1421.35 820.587 1421.29 820.457C1421.15 820.197 1420.95 819.816 1420.69 819.326C1420.16 818.345 1419.38 816.923 1418.34 815.14C1416.27 811.576 1413.19 806.567 1409.14 800.755C1401.05 789.143 1389.04 774.271 1373.4 761.333L1348.36 740.617L1346.43 739.023L1344.84 740.95L1312.96 779.475Z" fill="#B0C1FF" stroke="black" stroke-width="5"/>
</g>
<mask id="mask4_50_1437" style="mask-type:alpha" maskUnits="userSpaceOnUse" x="607" y="0" width="1109" height="1220">
<path d="M1436.5 348H1260.5L1101.5 647.5L1251.5 758H1272L1357 757L1356.5 763H1381.5L1614.5 679.5L1715.5 1171L607 1219.5V147L747 0L1408 147L1436.5 348Z" fill="#D9D9D9"/>
</mask>
<g mask="url(#mask4_50_1437)">
<path fill-rule="evenodd" clip-rule="evenodd" d="M1433.37 552.69C1433.37 748.751 1274.43 907.69 1078.37 907.69C882.309 907.69 723.37 748.751 723.37 552.69C723.37 356.629 882.309 197.69 1078.37 197.69C1274.43 197.69 1433.37 356.629 1433.37 552.69ZM803.37 552.69C803.37 704.568 926.492 827.69 1078.37 827.69C1230.25 827.69 1353.37 704.568 1353.37 552.69C1353.37 400.812 1230.25 277.69 1078.37 277.69C926.492 277.69 803.37 400.812 803.37 552.69ZM1078.37 902.69C1271.67 902.69 1428.37 745.99 1428.37 552.69C1428.37 359.39 1271.67 202.69 1078.37 202.69C885.07 202.69 728.37 359.39 728.37 552.69C728.37 745.99 885.07 902.69 1078.37 902.69ZM1078.37 832.69C923.73 832.69 798.37 707.33 798.37 552.69C798.37 398.05 923.73 272.69 1078.37 272.69C1233.01 272.69 1358.37 398.05 1358.37 552.69C1358.37 707.33 1233.01 832.69 1078.37 832.69Z" fill="black"/>
</g>
<mask id="mask5_50_1437" style="mask-type:alpha" maskUnits="userSpaceOnUse" x="556" y="28" width="991" height="1144">
<path d="M1185.5 343H1360L1366 321.5L1438 254L1547 157L971 28C832.667 70.3333 556 158 556 170C556 182 570 632.333 577 856L971 1171.5L1486 888L1535.5 903.5V844L1477 800.5L1398 763H1247L1258.5 661L1185.5 343Z" fill="#D9D9D9"/>
</mask>
<g mask="url(#mask5_50_1437)">
<path d="M1428.37 552.69C1428.37 745.99 1271.67 902.69 1078.37 902.69C885.07 902.69 728.37 745.99 728.37 552.69C728.37 359.39 885.07 202.69 1078.37 202.69C1271.67 202.69 1428.37 359.39 1428.37 552.69ZM798.37 552.69C798.37 707.33 923.73 832.69 1078.37 832.69C1233.01 832.69 1358.37 707.33 1358.37 552.69C1358.37 398.05 1233.01 272.69 1078.37 272.69C923.73 272.69 798.37 398.05 798.37 552.69Z" fill="#B0C1FF"/>
<path d="M1103.37 228.19H1105.87V225.69V193.19C1105.87 172.893 1102.07 154.159 1098.28 140.521C1096.39 133.695 1094.49 128.129 1093.06 124.262C1092.35 122.328 1091.75 120.818 1091.33 119.786C1091.12 119.271 1090.96 118.874 1090.84 118.604C1090.79 118.469 1090.74 118.366 1090.71 118.295L1090.68 118.213L1090.67 118.191L1090.66 118.184L1090.66 118.182C1090.66 118.181 1090.66 118.181 1088.37 119.19L1090.66 118.181L1090 116.69H1088.37H1068.37H1066.74L1066.09 118.181L1068.37 119.19C1066.09 118.181 1066.09 118.181 1066.09 118.182L1066.09 118.184L1066.08 118.191L1066.07 118.213L1066.04 118.295C1066.01 118.366 1065.96 118.469 1065.9 118.604C1065.79 118.874 1065.62 119.271 1065.41 119.786C1064.99 120.818 1064.4 122.328 1063.68 124.262C1062.26 128.129 1060.36 133.695 1058.47 140.521C1054.68 154.159 1050.87 172.893 1050.87 193.19V225.69V228.19H1053.37H1103.37Z" fill="#B0C1FF" stroke="black" stroke-width="5"/>
<path d="M1249.18 830.815L1247.16 832.284L1248.63 834.307L1267.73 860.6C1279.66 877.02 1293.75 889.941 1304.83 898.748C1310.37 903.156 1315.18 906.544 1318.61 908.834C1320.32 909.979 1321.69 910.85 1322.64 911.438C1323.11 911.732 1323.48 911.955 1323.73 912.106C1323.85 912.182 1323.95 912.239 1324.02 912.279L1324.09 912.324L1324.12 912.336L1324.12 912.34L1324.12 912.341C1324.12 912.341 1324.13 912.342 1325.38 910.181L1324.13 912.342L1325.53 913.161L1326.85 912.204L1343.03 900.448L1344.35 899.49L1344.01 897.897L1341.56 898.425C1344.01 897.897 1344.01 897.897 1344.01 897.896L1344.01 897.894L1344 897.886L1344 897.862L1343.98 897.775C1343.96 897.7 1343.94 897.59 1343.9 897.447C1343.84 897.162 1343.74 896.743 1343.61 896.203C1343.34 895.121 1342.93 893.549 1342.38 891.565C1341.26 887.599 1339.52 881.98 1337.04 875.344C1332.09 862.084 1324.15 844.692 1312.22 828.272L1293.12 801.979L1291.65 799.956L1289.63 801.426L1249.18 830.815Z" fill="#B0C1FF" stroke="black" stroke-width="5"/>
<path d="M867.119 801.425L865.096 799.956L863.627 801.979L844.524 828.272C832.594 844.692 824.658 862.084 819.707 875.344C817.229 881.98 815.492 887.598 814.373 891.565C813.813 893.549 813.408 895.121 813.141 896.202C813.008 896.743 812.909 897.161 812.843 897.447C812.81 897.59 812.785 897.699 812.769 897.775L812.749 897.862L812.744 897.886L812.742 897.893L812.742 897.895C812.742 897.896 812.742 897.897 815.185 898.425L812.742 897.897L812.397 899.49L813.716 900.447L829.896 912.203L831.214 913.161L832.623 912.341L831.366 910.181C832.623 912.341 832.623 912.341 832.624 912.341L832.626 912.34L832.632 912.336L832.654 912.323L832.731 912.278C832.797 912.239 832.894 912.181 833.019 912.106C833.271 911.955 833.638 911.732 834.111 911.438C835.057 910.85 836.427 909.979 838.141 908.833C841.568 906.543 846.374 903.156 851.92 898.748C863.001 889.941 877.09 877.02 889.02 860.6L908.123 834.307L909.592 832.284L907.57 830.815L867.119 801.425Z" fill="#B0C1FF" stroke="black" stroke-width="5"/>
<path d="M777.006 428.983L777.779 426.605L775.401 425.833L744.492 415.79C725.189 409.518 706.196 407.345 692.055 406.733C684.977 406.427 679.097 406.512 674.979 406.673C672.919 406.754 671.299 406.854 670.188 406.935C669.633 406.975 669.204 407.01 668.912 407.036C668.766 407.049 668.654 407.059 668.577 407.066L668.488 407.075L668.464 407.077L668.457 407.078L668.454 407.078C668.454 407.078 668.453 407.078 668.706 409.566L668.453 407.078L666.832 407.243L666.328 408.793L660.148 427.814L659.644 429.364L660.859 430.45L662.525 428.587C660.859 430.45 660.859 430.451 660.86 430.451L660.862 430.453L660.867 430.458L660.886 430.474L660.952 430.533C661.01 430.584 661.095 430.658 661.206 430.755C661.427 430.947 661.752 431.227 662.178 431.586C663.03 432.304 664.282 433.338 665.9 434.614C669.137 437.165 673.845 440.69 679.75 444.602C691.55 452.42 708.193 461.826 727.496 468.098L758.405 478.141L760.783 478.913L761.555 476.536L777.006 428.983Z" fill="#B0C1FF" stroke="black" stroke-width="5"/>
<path d="M1021.87 232.043L1024.3 231.421L1023.67 229L1015.59 197.521C1010.54 177.862 1002.2 160.662 995.14 148.394C991.606 142.255 988.385 137.335 986.041 133.944C984.87 132.249 983.917 130.934 983.254 130.039C982.922 129.592 982.663 129.249 982.485 129.017C982.396 128.9 982.327 128.811 982.279 128.75L982.225 128.679L982.209 128.66L982.205 128.654L982.203 128.653C982.203 128.652 982.203 128.651 980.238 130.198L982.203 128.651L981.195 127.371L979.616 127.776L960.245 132.75L958.666 133.155L958.4 134.763L960.866 135.171C958.4 134.763 958.4 134.764 958.4 134.764L958.399 134.767L958.398 134.774L958.394 134.798L958.38 134.886C958.368 134.963 958.351 135.074 958.329 135.219C958.285 135.509 958.223 135.934 958.148 136.486C957.998 137.589 957.796 139.2 957.586 141.251C957.166 145.351 956.713 151.214 956.574 158.296C956.296 172.448 957.272 191.54 962.319 211.199L970.401 242.678L971.023 245.099L973.445 244.477L1021.87 232.043Z" fill="#B0C1FF" stroke="black" stroke-width="5"/>
<path d="M1312.96 779.475L1311.37 781.402L1313.3 782.995L1338.34 803.712C1353.98 816.649 1370.84 825.661 1383.76 831.435C1390.23 834.325 1395.73 836.411 1399.61 837.777C1401.56 838.46 1403.1 838.963 1404.17 839.298C1404.7 839.465 1405.11 839.589 1405.39 839.673C1405.53 839.715 1405.64 839.747 1405.71 839.768L1405.8 839.793L1405.82 839.8L1405.83 839.802L1405.83 839.802C1405.83 839.803 1405.83 839.803 1406.51 837.397L1405.83 839.803L1407.4 840.246L1408.44 838.991L1421.19 823.58L1422.23 822.325L1421.5 820.868L1419.26 821.987C1421.5 820.868 1421.5 820.867 1421.5 820.866L1421.49 820.864L1421.49 820.858L1421.48 820.836L1421.44 820.756C1421.4 820.687 1421.35 820.587 1421.29 820.457C1421.15 820.197 1420.95 819.816 1420.69 819.326C1420.16 818.345 1419.38 816.923 1418.34 815.14C1416.27 811.576 1413.19 806.567 1409.14 800.755C1401.05 789.143 1389.04 774.271 1373.4 761.333L1348.36 740.617L1346.43 739.023L1344.84 740.95L1312.96 779.475Z" fill="#B0C1FF" stroke="black" stroke-width="5"/>
<path d="M935.599 846.024L933.274 845.103L932.354 847.428L920.39 877.646C912.918 896.517 909.557 915.336 908.059 929.411C907.309 936.455 907.024 942.328 906.927 946.449C906.878 948.509 906.876 950.133 906.887 951.247C906.892 951.804 906.901 952.233 906.908 952.526C906.911 952.673 906.915 952.785 906.917 952.863L906.92 952.952L906.921 952.976L906.921 952.984L906.921 952.986C906.921 952.987 906.921 952.987 909.42 952.891L906.921 952.987L906.984 954.616L908.499 955.216L927.095 962.578L928.61 963.178L929.77 962.034L928.015 960.254C929.77 962.034 929.771 962.033 929.771 962.033L929.773 962.031L929.778 962.026L929.796 962.009L929.859 961.946C929.913 961.891 929.993 961.811 930.096 961.707C930.302 961.498 930.602 961.191 930.987 960.789C931.757 959.984 932.867 958.799 934.242 957.264C936.992 954.193 940.805 949.717 945.081 944.068C953.623 932.783 964.056 916.764 971.528 897.892L983.492 867.675L984.412 865.35L982.087 864.43L935.599 846.024Z" fill="#B0C1FF" stroke="black" stroke-width="5"/>
<path d="M1366.29 400.014L1367.63 402.125L1369.74 400.785L1397.18 383.371C1414.31 372.496 1428.09 359.246 1437.58 348.74C1442.33 343.482 1446.01 338.898 1448.51 335.621C1449.76 333.983 1450.72 332.671 1451.36 331.763C1451.69 331.31 1451.93 330.957 1452.1 330.716C1452.18 330.595 1452.24 330.502 1452.29 330.438L1452.34 330.364L1452.35 330.344L1452.36 330.338L1452.36 330.336C1452.36 330.335 1452.36 330.335 1450.28 328.944L1452.36 330.335L1453.26 328.981L1452.39 327.605L1441.67 310.718L1440.8 309.342L1439.19 309.586L1439.56 312.058C1439.19 309.586 1439.19 309.586 1439.19 309.586L1439.19 309.586L1439.18 309.587L1439.15 309.591L1439.07 309.605C1438.99 309.617 1438.88 309.635 1438.73 309.659C1438.45 309.707 1438.02 309.779 1437.47 309.878C1436.38 310.076 1434.78 310.382 1432.77 310.816C1428.74 311.684 1423.02 313.065 1416.24 315.121C1402.7 319.23 1384.84 326.058 1367.71 336.933L1340.27 354.347L1338.15 355.687L1339.49 357.798L1366.29 400.014Z" fill="#B0C1FF" stroke="black" stroke-width="5"/>
<path d="M755.694 507.692L755.851 505.197L753.356 505.04L720.921 502.999C700.664 501.725 681.728 504.344 667.879 507.268C660.947 508.732 655.273 510.276 651.324 511.457C649.35 512.047 647.805 512.547 646.749 512.901C646.221 513.078 645.815 513.219 645.539 513.317C645.4 513.365 645.294 513.403 645.222 513.429L645.138 513.46L645.115 513.468L645.108 513.471L645.106 513.471C645.105 513.472 645.104 513.472 645.968 515.818L645.104 513.472L643.575 514.035L643.473 515.661L642.217 535.622L642.115 537.248L643.561 537.998L644.712 535.779C643.561 537.998 643.562 537.998 643.562 537.999L643.565 538L643.571 538.003L643.593 538.014L643.672 538.055C643.741 538.09 643.842 538.141 643.973 538.207C644.235 538.338 644.62 538.528 645.122 538.77C646.125 539.254 647.594 539.944 649.48 540.777C653.25 542.444 658.685 544.686 665.378 547.007C678.752 551.645 697.211 556.616 717.467 557.891L749.903 559.932L752.398 560.089L752.555 557.593L755.694 507.692Z" fill="#B0C1FF" stroke="black" stroke-width="5"/>
<path d="M943.891 256.043L946.082 254.839L944.878 252.648L929.221 224.168C919.443 206.382 907.085 191.797 897.195 181.671C892.245 176.603 887.902 172.639 884.789 169.938C883.232 168.587 881.982 167.551 881.117 166.849C880.685 166.498 880.349 166.231 880.118 166.049C880.003 165.959 879.914 165.89 879.853 165.842L879.782 165.788L879.763 165.773L879.757 165.768L879.755 165.767C879.755 165.766 879.754 165.766 878.236 167.752L879.754 165.766L878.459 164.776L877.032 165.561L859.505 175.196L858.077 175.981L858.219 177.605L860.71 177.387C858.219 177.605 858.219 177.605 858.219 177.606L858.22 177.609L858.22 177.616L858.222 177.64L858.231 177.729C858.238 177.806 858.249 177.918 858.264 178.064C858.293 178.356 858.339 178.783 858.403 179.336C858.532 180.442 858.738 182.053 859.044 184.091C859.657 188.167 860.676 193.958 862.303 200.853C865.553 214.629 871.246 232.879 881.024 250.665L896.681 279.145L897.885 281.335L900.076 280.131L943.891 256.043Z" fill="#B0C1FF" stroke="black" stroke-width="5"/>
<path d="M1361.98 713.886L1360.91 716.148L1363.18 717.212L1392.58 731.05C1410.95 739.692 1429.52 744.228 1443.47 746.607C1450.45 747.798 1456.3 748.451 1460.4 748.807C1462.46 748.985 1464.08 749.089 1465.19 749.148C1465.75 749.178 1466.18 749.196 1466.47 749.207C1466.62 749.213 1466.73 749.217 1466.81 749.219L1466.89 749.222L1466.92 749.223L1466.93 749.223L1466.93 749.223C1466.93 749.223 1466.93 749.223 1466.99 746.724L1466.93 749.223L1468.56 749.263L1469.25 747.788L1477.77 729.692L1478.46 728.217L1477.39 726.987L1475.51 728.627C1477.39 726.987 1477.39 726.987 1477.39 726.986L1477.39 726.984L1477.39 726.979L1477.37 726.96L1477.31 726.893C1477.26 726.835 1477.19 726.751 1477.09 726.642C1476.89 726.423 1476.6 726.104 1476.23 725.695C1475.47 724.876 1474.36 723.693 1472.91 722.224C1470.02 719.287 1465.79 715.201 1460.43 710.579C1449.7 701.344 1434.37 689.926 1416 681.285L1386.59 667.447L1384.33 666.382L1383.27 668.644L1361.98 713.886Z" fill="#B0C1FF" stroke="black" stroke-width="5"/>
<path d="M1013.02 872.191L1010.54 871.877L1010.22 874.358L1006.15 906.601C1003.61 926.738 1005.03 945.801 1007.08 959.807C1008.11 966.816 1009.29 972.576 1010.22 976.591C1010.69 978.599 1011.09 980.172 1011.38 981.248C1011.52 981.786 1011.63 982.2 1011.71 982.482C1011.75 982.623 1011.79 982.732 1011.81 982.806L1011.83 982.891L1011.84 982.915L1011.84 982.922L1011.84 982.924C1011.84 982.925 1011.84 982.926 1014.24 982.211L1011.84 982.926L1012.31 984.487L1013.92 984.691L1033.77 987.198L1035.38 987.402L1036.22 986.006L1034.08 984.718C1036.22 986.006 1036.22 986.005 1036.22 986.004L1036.23 986.002L1036.23 985.996L1036.24 985.975L1036.29 985.898C1036.33 985.832 1036.38 985.735 1036.46 985.608C1036.6 985.355 1036.82 984.982 1037.09 984.497C1037.64 983.526 1038.42 982.103 1039.37 980.273C1041.27 976.615 1043.85 971.331 1046.58 964.797C1052.05 951.742 1058.17 933.631 1060.72 913.495L1064.79 881.251L1065.1 878.771L1062.62 878.457L1013.02 872.191Z" fill="#B0C1FF" stroke="black" stroke-width="5"/>
<path d="M1319.26 333.086L1321.08 334.797L1322.79 332.975L1345.04 309.283C1358.93 294.488 1368.98 278.228 1375.56 265.693C1378.85 259.419 1381.28 254.063 1382.88 250.268C1383.69 248.37 1384.29 246.861 1384.69 245.821C1384.89 245.302 1385.04 244.899 1385.14 244.624C1385.19 244.487 1385.23 244.381 1385.25 244.308L1385.28 244.224L1385.29 244.201L1385.29 244.194L1385.3 244.192C1385.3 244.191 1385.3 244.19 1382.94 243.36L1385.3 244.19L1385.84 242.653L1384.65 241.538L1370.07 227.847L1368.88 226.731L1367.38 227.368L1368.36 229.669C1367.38 227.368 1367.38 227.368 1367.38 227.368L1367.38 227.369L1367.37 227.372L1367.35 227.382L1367.27 227.417C1367.2 227.448 1367.09 227.493 1366.96 227.552C1366.69 227.67 1366.3 227.846 1365.79 228.078C1364.78 228.542 1363.31 229.235 1361.47 230.157C1357.78 231.999 1352.59 234.758 1346.53 238.436C1334.44 245.784 1318.84 256.838 1304.94 271.633L1282.7 295.325L1280.99 297.147L1282.81 298.858L1319.26 333.086Z" fill="#B0C1FF" stroke="black" stroke-width="5"/>
<path d="M754.626 589.229L754.158 586.773L751.702 587.241L719.778 593.331C699.841 597.134 682.15 604.38 669.464 610.657C663.114 613.799 658.002 616.705 654.471 618.831C652.705 619.894 651.334 620.762 650.399 621.368C649.931 621.671 649.573 621.908 649.33 622.071C649.208 622.153 649.115 622.216 649.051 622.259L648.977 622.309L648.957 622.323L648.951 622.327L648.949 622.329C648.948 622.329 648.948 622.33 650.367 624.387L648.948 622.33L647.606 623.255L647.912 624.856L651.659 644.501L651.965 646.102L653.552 646.469L654.115 644.033C653.552 646.469 653.553 646.469 653.554 646.469L653.556 646.47L653.563 646.471L653.587 646.477L653.674 646.496C653.75 646.513 653.86 646.538 654.003 646.569C654.289 646.631 654.71 646.719 655.256 646.829C656.348 647.048 657.943 647.35 659.976 647.689C664.042 648.365 669.865 649.186 676.925 649.769C691.031 650.935 710.147 651.16 730.083 647.357L762.008 641.267L764.464 640.799L763.995 638.343L754.626 589.229Z" fill="#B0C1FF" stroke="black" stroke-width="5"/>
<path d="M1183.27 244.726L1185.7 245.348L1186.32 242.926L1194.4 211.447C1199.45 191.789 1200.42 172.697 1200.14 158.545C1200.01 151.462 1199.55 145.6 1199.13 141.499C1198.92 139.449 1198.72 137.838 1198.57 136.734C1198.5 136.183 1198.43 135.757 1198.39 135.468C1198.37 135.323 1198.35 135.211 1198.34 135.135L1198.32 135.047L1198.32 135.023L1198.32 135.015L1198.32 135.013C1198.32 135.012 1198.32 135.012 1195.85 135.42L1198.32 135.012L1198.05 133.404L1196.47 132.999L1177.1 128.025L1175.52 127.62L1174.52 128.9L1176.48 130.446C1174.52 128.9 1174.52 128.901 1174.52 128.901L1174.51 128.903L1174.51 128.909L1174.49 128.928L1174.44 128.999C1174.39 129.06 1174.32 129.149 1174.23 129.265C1174.06 129.498 1173.8 129.841 1173.47 130.288C1172.8 131.183 1171.85 132.498 1170.68 134.193C1168.33 137.584 1165.11 142.503 1161.58 148.643C1154.52 160.91 1146.17 178.111 1141.13 197.769L1133.04 229.248L1132.42 231.67L1134.84 232.292L1183.27 244.726Z" fill="#B0C1FF" stroke="black" stroke-width="5"/>
<path d="M1174.63 864.679L1172.31 865.599L1173.23 867.924L1185.19 898.141C1192.66 917.013 1203.09 933.032 1211.64 944.318C1215.91 949.966 1219.73 954.443 1222.48 957.513C1223.85 959.048 1224.96 960.233 1225.73 961.038C1226.12 961.44 1226.42 961.747 1226.62 961.956C1226.72 962.061 1226.8 962.14 1226.86 962.195L1226.92 962.258L1226.94 962.275L1226.94 962.28L1226.95 962.282C1226.95 962.283 1226.95 962.283 1228.7 960.503L1226.95 962.283L1228.11 963.427L1229.62 962.827L1248.22 955.465L1249.73 954.865L1249.8 953.237L1247.3 953.14C1249.8 953.237 1249.8 953.236 1249.8 953.235L1249.8 953.233L1249.8 953.226L1249.8 953.201L1249.8 953.112C1249.8 953.034 1249.81 952.922 1249.81 952.775C1249.82 952.482 1249.83 952.053 1249.83 951.496C1249.84 950.382 1249.84 948.759 1249.79 946.698C1249.69 942.577 1249.41 936.704 1248.66 929.66C1247.16 915.585 1243.8 896.766 1236.33 877.895L1224.36 847.677L1223.44 845.352L1221.12 846.273L1174.63 864.679Z" fill="#B0C1FF" stroke="black" stroke-width="5"/>
<path d="M811.882 741.198L810.289 739.272L808.362 740.866L783.321 761.582C767.682 774.519 755.671 789.392 747.577 801.004C743.527 806.815 740.447 811.825 738.377 815.389C737.341 817.171 736.558 818.593 736.03 819.574C735.767 820.065 735.567 820.445 735.432 820.705C735.365 820.836 735.314 820.936 735.279 821.005L735.238 821.084L735.227 821.106L735.224 821.113L735.223 821.115C735.222 821.115 735.222 821.116 737.458 822.235L735.222 821.116L734.493 822.573L735.531 823.829L748.28 839.239L749.318 840.495L750.886 840.051L750.206 837.645C750.886 840.051 750.887 840.051 750.888 840.051L750.89 840.05L750.897 840.048L750.921 840.041L751.007 840.017C751.081 839.995 751.189 839.963 751.329 839.922C751.61 839.838 752.021 839.713 752.553 839.546C753.615 839.212 755.159 838.709 757.103 838.025C760.992 836.66 766.49 834.574 772.958 831.684C785.881 825.909 802.741 816.898 818.379 803.96L843.421 783.244L845.347 781.65L843.754 779.724L811.882 741.198Z" fill="#B0C1FF" stroke="black" stroke-width="5"/>
<path d="M817.224 358.047L818.564 355.936L816.453 354.596L789.012 337.182C771.875 326.307 754.019 319.479 740.475 315.37C733.696 313.313 727.98 311.933 723.95 311.065C721.935 310.631 720.341 310.325 719.245 310.127C718.697 310.028 718.273 309.955 717.984 309.907C717.839 309.883 717.728 309.866 717.652 309.854L717.564 309.84L717.539 309.836L717.532 309.835L717.53 309.835C717.529 309.834 717.529 309.834 717.155 312.306L717.529 309.834L715.917 309.591L715.044 310.967L704.328 327.853L703.454 329.229L704.361 330.583L706.438 329.193C704.361 330.583 704.361 330.584 704.362 330.585L704.363 330.586L704.367 330.592L704.381 330.613L704.431 330.687C704.474 330.751 704.538 330.844 704.621 330.964C704.787 331.206 705.033 331.558 705.356 332.012C706.002 332.919 706.958 334.231 708.208 335.87C710.709 339.146 714.392 343.731 719.139 348.989C728.624 359.495 742.405 372.745 759.542 383.62L786.982 401.034L789.093 402.374L790.433 400.263L817.224 358.047Z" fill="#B0C1FF" stroke="black" stroke-width="5"/>
<path d="M1256.55 280.613L1258.74 281.818L1259.94 279.627L1275.6 251.147C1285.38 233.361 1291.07 215.112 1294.32 201.336C1295.95 194.441 1296.97 188.649 1297.58 184.574C1297.89 182.535 1298.09 180.925 1298.22 179.818C1298.29 179.265 1298.33 178.838 1298.36 178.546C1298.38 178.401 1298.39 178.289 1298.4 178.212L1298.4 178.123L1298.41 178.098L1298.41 178.091L1298.41 178.089C1298.41 178.088 1298.41 178.087 1295.92 177.87L1298.41 178.087L1298.55 176.464L1297.12 175.679L1279.59 166.044L1278.17 165.259L1276.87 166.248L1278.39 168.234C1276.87 166.248 1276.87 166.249 1276.87 166.249L1276.87 166.251L1276.86 166.255L1276.84 166.27L1276.77 166.325C1276.71 166.372 1276.62 166.441 1276.51 166.532C1276.28 166.713 1275.94 166.98 1275.51 167.331C1274.64 168.033 1273.39 169.069 1271.84 170.42C1268.72 173.122 1264.38 177.085 1259.43 182.153C1249.54 192.279 1237.18 206.865 1227.41 224.65L1211.75 253.13L1210.54 255.321L1212.73 256.525L1256.55 280.613Z" fill="#B0C1FF" stroke="black" stroke-width="5"/>
<path d="M1094 878.94L1091.52 879.253L1091.84 881.733L1095.91 913.977C1098.45 934.113 1104.57 952.224 1110.04 965.279C1112.78 971.814 1115.36 977.098 1117.26 980.756C1118.21 982.585 1118.99 984.008 1119.53 984.979C1119.81 985.465 1120.02 985.837 1120.17 986.09C1120.24 986.217 1120.3 986.314 1120.34 986.381L1120.38 986.457L1120.4 986.479L1120.4 986.485L1120.4 986.487C1120.4 986.487 1120.4 986.488 1122.55 985.2L1120.4 986.488L1121.24 987.885L1122.86 987.68L1142.7 985.174L1144.32 984.97L1144.78 983.408L1142.39 982.694C1144.78 983.408 1144.78 983.407 1144.78 983.407L1144.78 983.404L1144.79 983.397L1144.79 983.374L1144.82 983.288C1144.84 983.214 1144.87 983.106 1144.91 982.965C1144.99 982.683 1145.11 982.269 1145.25 981.731C1145.54 980.654 1145.94 979.082 1146.4 977.073C1147.34 973.058 1148.52 967.298 1149.55 960.289C1151.59 946.284 1153.02 927.22 1150.48 907.084L1146.4 874.84L1146.09 872.36L1143.61 872.673L1094 878.94Z" fill="#B0C1FF" stroke="black" stroke-width="5"/>
<path d="M773.359 669.127L772.295 666.864L770.033 667.929L740.626 681.767C722.261 690.409 706.928 701.826 696.201 711.061C690.833 715.683 686.604 719.769 683.713 722.706C682.266 724.175 681.154 725.357 680.399 726.176C680.022 726.586 679.734 726.905 679.538 727.123C679.441 727.233 679.366 727.317 679.315 727.375L679.256 727.442L679.24 727.46L679.235 727.466L679.234 727.468C679.233 727.468 679.233 727.469 681.12 729.109L679.233 727.469L678.164 728.699L678.858 730.173L687.373 748.27L688.067 749.744L689.696 749.704L689.635 747.205C689.696 749.704 689.697 749.704 689.697 749.704L689.7 749.704L689.707 749.704L689.732 749.704L689.821 749.701C689.898 749.698 690.011 749.695 690.157 749.689C690.45 749.678 690.879 749.659 691.435 749.63C692.548 749.57 694.168 749.466 696.221 749.289C700.328 748.933 706.172 748.279 713.155 747.089C727.108 744.71 745.679 740.174 764.044 731.532L793.451 717.694L795.713 716.63L794.648 714.368L773.359 669.127Z" fill="#B0C1FF" stroke="black" stroke-width="5"/>
<path d="M873.819 299.341L875.641 297.629L873.93 295.807L851.682 272.115C837.788 257.32 822.191 246.266 810.094 238.918C804.039 235.24 798.846 232.481 795.16 230.639C793.316 229.717 791.847 229.024 790.835 228.56C790.329 228.327 789.937 228.152 789.669 228.034C789.534 227.975 789.431 227.93 789.36 227.899L789.278 227.864L789.256 227.854L789.249 227.851L789.247 227.85C789.246 227.85 789.246 227.85 788.269 230.151L789.246 227.85L787.745 227.213L786.558 228.329L771.978 242.02L770.79 243.135L771.331 244.672L773.69 243.842C771.331 244.672 771.332 244.673 771.332 244.674L771.333 244.676L771.335 244.683L771.343 244.706L771.373 244.79C771.4 244.863 771.438 244.968 771.489 245.106C771.59 245.381 771.74 245.784 771.94 246.303C772.34 247.343 772.94 248.852 773.743 250.75C775.351 254.545 777.778 259.901 781.068 266.175C787.642 278.71 797.695 294.97 811.589 309.765L833.837 333.457L835.548 335.279L837.371 333.568L873.819 299.341Z" fill="#B0C1FF" stroke="black" stroke-width="5"/>
<path d="M1428.37 552.69C1428.37 745.99 1271.67 902.69 1078.37 902.69C885.07 902.69 728.37 745.99 728.37 552.69C728.37 359.39 885.07 202.69 1078.37 202.69C1271.67 202.69 1428.37 359.39 1428.37 552.69ZM798.37 552.69C798.37 707.33 923.73 832.69 1078.37 832.69C1233.01 832.69 1358.37 707.33 1358.37 552.69C1358.37 398.05 1233.01 272.69 1078.37 272.69C923.73 272.69 798.37 398.05 798.37 552.69Z" fill="#B0C1FF"/>
</g>
<path d="M1263 760.5H1372" stroke="black" stroke-width="5"/>
<path d="M1263 345.5H1363.5" stroke="black" stroke-width="5"/>
</svg>
